<?xml version="1.0" encoding="UTF-8"?>
<!-- Generator: visioncortex VTracer 0.6.4 -->
<svg version="1.1" xmlns="http://www.w3.org/2000/svg" width="1024" height="1024">
<path d="M0 0 C337.92 0 675.84 0 1024 0 C1024 337.92 1024 675.84 1024 1024 C686.08 1024 348.16 1024 0 1024 C0 686.08 0 348.16 0 0 Z " fill="#F4FDFE" transform="translate(0,0)"/>
<path d="M0 0 C1.57 0 1.57 0 3.17 0 C21.34 0.04 38.91 1.12 56.81 4.38 C58.46 4.67 58.46 4.67 60.14 4.98 C87.75 10.2 114.73 19.8 139.81 32.38 C140.59 32.76 141.37 33.14 142.17 33.54 C181.45 53.05 216.99 82.81 243.53 117.7 C244.75 119.29 246 120.85 247.26 122.41 C281.27 164.9 300.42 218.95 307.81 272.38 C307.95 273.29 308.08 274.2 308.21 275.14 C308.52 277.56 308.69 279.94 308.81 282.38 C308.85 283.04 308.89 283.71 308.93 284.4 C309.79 301.45 309.79 301.45 305.38 306.96 C301.12 310.8 296.36 313.13 290.62 313.69 C284.62 313.19 279.95 311 275.94 306.44 C272.43 301.38 271.51 297.15 270.92 291.04 C270.77 289.58 270.62 288.12 270.47 286.66 C270.39 285.9 270.32 285.14 270.24 284.35 C268.04 262.66 264 242 256.81 221.38 C256.57 220.69 256.34 220 256.09 219.3 C245.7 189.77 230.59 162.65 210.81 138.38 C210.37 137.83 209.93 137.28 209.47 136.72 C198.26 123.01 185.88 110.18 171.81 99.38 C170.54 98.36 169.26 97.35 167.99 96.33 C137.53 72.26 102.21 56.3 64.81 46.38 C63.63 46.05 62.45 45.72 61.23 45.39 C50.65 42.68 39.65 41.59 28.81 40.38 C27.93 40.28 27.05 40.18 26.14 40.07 C-39.67 33.36 -108.63 53.61 -161.19 93.38 C-162.03 94.01 -162.03 94.01 -162.9 94.65 C-172.6 101.92 -181.46 109.96 -190.19 118.38 C-191.13 119.27 -192.07 120.17 -193.04 121.1 C-198.92 126.83 -204.13 132.92 -209.19 139.38 C-209.67 139.97 -210.14 140.57 -210.64 141.18 C-229.58 164.82 -243.97 190.89 -254.19 219.38 C-254.48 220.19 -254.78 221.01 -255.08 221.86 C-269.45 262.74 -272.36 308.72 -265.19 351.38 C-264.91 353.07 -264.91 353.07 -264.62 354.8 C-260.23 380.22 -252.7 405.24 -241.19 428.38 C-240.82 429.13 -240.45 429.88 -240.06 430.65 C-231.45 447.99 -221.38 464.32 -209.19 479.38 C-208.48 480.27 -207.78 481.16 -207.06 482.09 C-165.48 534.31 -101.98 570.07 -35.6 578.12 C37.95 585.74 112.31 566.64 170.19 519.75 C172.75 517.64 175.28 515.52 177.81 513.38 C178.68 512.64 179.55 511.91 180.44 511.15 C192.48 500.6 204.12 489.14 213.81 476.38 C214.54 475.44 215.28 474.5 216.03 473.53 C239.22 443.36 255.68 408.08 264.25 371.05 C266.17 363.25 268.94 357.33 275.44 352.38 C281.27 350.65 287.37 350.15 293.19 352.22 C298.28 355.08 301.64 358.97 303.81 364.38 C304.87 372.04 302.89 379.24 300.81 386.56 C300.5 387.7 300.18 388.84 299.85 390.01 C288.05 431.54 269.43 470.04 241.81 503.38 C241.16 504.18 241.16 504.18 240.5 505 C228.94 519.25 215.81 532.52 201.81 544.38 C200.92 545.13 200.92 545.13 200.01 545.91 C156.3 582.82 102.12 608.58 44.92 615.13 C42.73 615.38 40.54 615.68 38.35 615.98 C-40.4 625.86 -123.67 603.39 -186.3 554.86 C-203.83 541.06 -221.27 525.6 -235.09 508.03 C-237.34 505.18 -239.7 502.44 -242.06 499.69 C-269.45 466.76 -287.41 426.54 -298.19 385.38 C-298.42 384.48 -298.66 383.59 -298.9 382.68 C-300.56 376.28 -301.95 369.86 -303.19 363.38 C-303.39 362.35 -303.58 361.32 -303.79 360.27 C-309.8 327.5 -309.94 291.19 -304.19 258.38 C-303.99 257.27 -303.8 256.16 -303.6 255.03 C-294.66 205.95 -274.76 157.32 -243.19 118.38 C-242.45 117.45 -241.71 116.52 -240.95 115.56 C-227.23 98.45 -211.66 81.69 -194.19 68.38 C-193.22 67.61 -192.26 66.84 -191.27 66.04 C-137.05 22.96 -69.06 -0.14 0 0 Z " fill="#0094FE" transform="translate(511.1875,202.625)"/>
<path d="M0 0 C1.58 1.15 1.58 1.15 3.19 2.33 C9.91 7.33 16.15 12.72 22.25 18.46 C24.18 20.25 26.11 21.94 28.14 23.6 C31.89 26.75 34.86 30.27 38 34 C38.74 34.84 39.48 35.68 40.25 36.55 C69.59 70.5 89.97 116.41 90.2 161.65 C90.21 162.55 90.21 163.45 90.22 164.38 C90.23 166.27 90.24 168.17 90.24 170.06 C90.25 172.9 90.28 175.74 90.31 178.57 C90.38 190.37 89.39 201.45 87 213 C86.8 213.97 86.6 214.95 86.4 215.95 C85.89 218.27 85.34 220.57 84.75 222.88 C84.54 223.69 84.33 224.51 84.12 225.36 C71.97 271.45 44.28 312.55 6 341 C5.44 341.42 4.88 341.85 4.31 342.28 C-12.58 355.11 -31.59 364.76 -51.5 371.94 C-52.34 372.24 -53.17 372.55 -54.04 372.87 C-59.79 374.87 -64.75 376.09 -70.73 374.08 C-76.61 371.04 -80.81 368.57 -83 362 C-83.66 354.55 -83.64 349.03 -79 343 C-74.97 339.25 -70.89 337.58 -65.81 335.75 C-64.19 335.14 -62.57 334.52 -60.96 333.91 C-60.13 333.59 -59.31 333.28 -58.46 332.95 C-38.78 325.33 -21.74 315.17 -5.7 301.45 C-4.02 300.02 -2.32 298.63 -0.61 297.24 C2.03 295.27 2.03 295.27 3 293 C3.66 293 4.32 293 5 293 C5.24 292.44 5.47 291.88 5.72 291.3 C7.29 288.48 9.25 286.51 11.5 284.19 C17.54 277.65 22.31 270.54 27 263 C28.05 261.33 28.05 261.33 29.12 259.63 C41.4 239.25 47.71 216.39 51 193 C51.19 191.78 51.37 190.56 51.56 189.3 C56.63 147.39 44.38 104.45 19.23 70.82 C-10.59 33.11 -51.28 8.87 -99.26 2.71 C-141.51 -2.06 -185.36 7.92 -220 33 C-221.02 33.74 -222.05 34.47 -223.1 35.23 C-235.81 44.6 -247.55 55.33 -257 68 C-257.39 68.52 -257.79 69.04 -258.2 69.58 C-285.54 105.7 -296.71 150.44 -290.81 195.38 C-286.05 227.83 -272.77 259.28 -251 284 C-249.89 285.28 -249.89 285.28 -248.75 286.58 C-246.54 289.08 -244.28 291.55 -242 294 C-241.3 294.75 -240.61 295.5 -239.89 296.27 C-215.08 322.08 -178.29 339.32 -142.97 343.63 C-141.65 343.8 -141.65 343.8 -140.29 343.98 C-138.57 344.19 -136.84 344.39 -135.1 344.56 C-128.83 345.34 -124.48 347.5 -120 352 C-116.37 357.46 -115.39 362.23 -116.39 368.71 C-117.88 374.3 -121.33 377.81 -126 381 C-133.52 385.18 -143.33 382.7 -151.38 381.31 C-152.95 381.04 -152.95 381.04 -154.57 380.76 C-210.76 370.78 -259.39 339.19 -292.41 292.79 C-296.62 286.73 -300.36 280.41 -304 274 C-304.34 273.41 -304.68 272.83 -305.03 272.22 C-332.13 225.47 -337.28 168.76 -324 117 C-314.65 83.13 -296.22 53.2 -272 28 C-271.48 27.45 -270.96 26.91 -270.43 26.34 C-262.54 18.07 -254.26 10.7 -245 4 C-244.01 3.28 -244.01 3.28 -243 2.55 C-172.08 -48.05 -71.58 -52.47 0 0 Z " fill="#0095FE" transform="translate(632,339)"/>
<path d="M0 0 C20.98 15.05 34.96 35.96 39.38 61.63 C42.65 85.67 36 109.54 21.69 128.9 C18.86 132.42 15.88 135.7 12.69 138.9 C12.01 139.59 11.34 140.27 10.65 140.98 C-5.3 156.18 -27.11 163.85 -48.94 164.21 C-75.51 163.55 -98.1 153.47 -116.45 134.18 C-121.19 128.94 -124.8 123.02 -128.31 116.9 C-129.07 115.61 -129.07 115.61 -129.84 114.29 C-139.58 96.27 -141.72 71.36 -136.69 51.59 C-135.95 49.34 -135.16 47.11 -134.31 44.9 C-133.88 43.72 -133.44 42.54 -132.99 41.32 C-123.82 18.21 -106.75 1.78 -84.28 -8.27 C-56.66 -19.84 -24.97 -15.81 0 0 Z " fill="#0095FE" transform="translate(561.3125,437.09765625)"/>
<path d="M0 0 C0.74 0.28 1.47 0.55 2.23 0.84 C15.03 6.38 23.68 18.62 29 31 C33.46 44.16 31.34 56.98 25.94 69.45 C19.33 82.57 8.66 90.02 -4.68 95.24 C-16.42 99.09 -29.85 98.03 -41 93 C-41.79 92.65 -42.57 92.3 -43.38 91.94 C-55.29 85.96 -64.5 75.72 -68.88 63.12 C-73.21 48.7 -71.69 33.82 -64.63 20.55 C-56.48 7.83 -45.28 0.94 -31.18 -3.59 C-20.49 -5.62 -10.01 -3.97 0 0 Z " fill="#F4FEFF" transform="translate(532,465)"/>
<path d="M0 0 C3.05 0.63 5.33 1.63 7.98 3.26 C8.72 3.71 9.47 4.17 10.24 4.64 C11.03 5.13 11.82 5.62 12.62 6.12 C13.84 6.88 13.84 6.88 15.09 7.65 C20.87 11.25 26.52 14.95 32 19 C32.63 19.46 33.26 19.92 33.92 20.4 C36.1 21.99 38.27 23.59 40.44 25.19 C41.49 25.96 41.49 25.96 42.56 26.74 C45.89 29.22 48.76 31.43 51 35 C46.94 34.44 44.83 32.35 41.81 29.69 C30.82 20.25 18.89 12.21 6.27 5.12 C1.1 2.19 1.1 2.19 0 0 Z " fill="#0681FE" transform="translate(642,273)"/>
<path d="M0 0 C0.66 0.33 1.32 0.66 2 1 C-1.72 5.56 -5.55 9.48 -10.03 13.29 C-12.83 15.72 -15.41 18.34 -18 21 C-18.66 20.67 -19.32 20.34 -20 20 C-13.4 13.4 -6.8 6.8 0 0 Z " fill="#0080FE" transform="translate(303,283)"/>
<path d="M0 0 C3.48 3.4 6.74 6.9 9.88 10.62 C10.68 11.57 11.48 12.51 12.3 13.48 C12.86 14.31 13.42 15.14 14 16 C13.67 16.99 13.34 17.98 13 19 C12.4 18.19 11.79 17.38 11.17 16.55 C10.36 15.47 9.56 14.39 8.75 13.31 C7.96 12.26 7.17 11.2 6.36 10.11 C4.85 8.12 3.3 6.16 1.7 4.23 C0 2 0 2 0 0 Z " fill="#0C87FE" transform="translate(718,334)"/>
<path d="M0 0 C3.12 1.41 5.45 3.1 8 5.38 C8.69 5.99 9.38 6.61 10.09 7.25 C12.12 9.11 14.09 11.01 16 13 C11.94 12.45 9.83 10.35 6.88 7.62 C6.01 6.83 5.14 6.04 4.24 5.23 C2 3 2 3 0 0 Z " fill="#0988FE" transform="translate(643,349)"/>
<path d="M0 0 C-1.9 4.43 -4.33 7.24 -8.75 9.25 C-9.49 9.5 -10.24 9.75 -11 10 C-9.63 6.85 -8.12 4.95 -5.5 2.75 C-4.89 2.23 -4.28 1.71 -3.66 1.17 C-2 0 -2 0 0 0 Z " fill="#0586FE" transform="translate(318,272)"/>
<path d="M0 0 C-0.33 0.99 -0.66 1.98 -1 3 C-3.07 3.88 -3.07 3.88 -5.69 4.56 C-7.04 4.93 -7.04 4.93 -8.41 5.3 C-9.26 5.53 -10.12 5.76 -11 6 C-13 6.66 -15.01 7.32 -17 8 C-17 7.34 -17 6.68 -17 6 C-14.54 5 -12.08 4 -9.62 3 C-8.93 2.71 -8.23 2.43 -7.51 2.13 C-2.23 0 -2.23 0 0 0 Z " fill="#0A85FE" transform="translate(410,220)"/>
<path d="M0 0 C0 0.99 0 1.98 0 3 C-1.97 4.82 -1.97 4.82 -4.5 6.69 C-5.34 7.31 -6.17 7.93 -7.03 8.57 C-7.68 9.04 -8.33 9.52 -9 10 C-9 9.01 -9 8.02 -9 7 C-7.03 5.18 -7.03 5.18 -4.5 3.31 C-3.66 2.69 -2.83 2.07 -1.97 1.43 C-1.32 0.96 -0.67 0.48 0 0 Z " fill="#0985FD" transform="translate(329,262)"/>
<path d="M0 0 C0 3.59 -0.66 4.11 -3 6.69 C-3.56 7.31 -4.11 7.93 -4.69 8.57 C-5.12 9.04 -5.55 9.52 -6 10 C-6.99 9.67 -7.98 9.34 -9 9 C-6.03 6.03 -3.06 3.06 0 0 Z " fill="#14A1FE" transform="translate(709,697)"/>
<path d="M0 0 C3.71 0.6 5.86 2.22 8.75 4.56 C9.95 5.52 9.95 5.52 11.17 6.5 C12.08 7.24 12.08 7.24 13 8 C9.37 8 7.9 6.99 4.81 5.12 C3.91 4.59 3.01 4.06 2.08 3.51 C1.39 3.01 0.71 2.51 0 2 C0 1.34 0 0.68 0 0 Z " fill="#0989FE" transform="translate(628,338)"/>
<path d="M0 0 C4.99 1.28 7.58 3.17 11 7 C7.42 7 6.59 6.21 3.81 4.06 C3.1 3.52 2.38 2.97 1.64 2.41 C1.1 1.94 0.56 1.48 0 1 C0 0.67 0 0.34 0 0 Z " fill="#0F8AFE" transform="translate(670,291)"/>
<path d="M0 0 C0.66 0.33 1.32 0.66 2 1 C0.62 2.5 0.62 2.5 -1 4 C-1.66 4 -2.32 4 -3 4 C-3.33 4.99 -3.66 5.98 -4 7 C-4.66 7 -5.32 7 -6 7 C-3 1 -3 1 0 0 Z " fill="#0A8AFE" transform="translate(269,322)"/>
<path d="M0 0 C0.33 0.66 0.66 1.32 1 2 C-0.98 4.31 -2.96 6.62 -5 9 C-5.33 8.34 -5.66 7.68 -6 7 C-4.02 4.69 -2.04 2.38 0 0 Z " fill="#0685FE" transform="translate(279,308)"/>
</svg>
