<svg xmlns="http://www.w3.org/2000/svg" viewBox="0 0 89.29999542236328 122.30000305175781"
    width="512" height="512">
    <path
        d="M73.59 90.85H42.38a11 11 0 0 1-11-11V77H17.53a15.71 15.71 0 0 1 0-31.42h13.89v-2.9a11 11 0 0 1 11-11H41.3A15.69 15.69 0 1 1 40.85.3 42.41 42.41 0 0 0 0 42.67v37.22a42.43 42.43 0 0 0 42.38 42.41h31.21a15.71 15.71 0 0 0 0-31.42z"
        fill="#f0f"></path>
    <path d="M61.4 77a15.71 15.71 0 1 0 0-31.42h-30V77z" fill="#00d5ff"></path>
    <path d="M1.83 61.3A15.7 15.7 0 0 0 17.52 77h13.9V45.57H17.53a15.71 15.71 0 0 0-15.7 15.72z"
        fill="#2300fd"></path>
    <path
        d="M56.74 16a15.68 15.68 0 0 1-15.41 15.7h32.29a15.71 15.71 0 0 0 0-31.4H41.48A15.7 15.7 0 0 1 56.74 16z"
        fill="#ffd100"></path>
    <path d="M25 16A16 16 0 1 0 41 0h-.65A16 16 0 0 0 25 16z" fill="#ee2e0b"></path>
</svg>